# xmcd
#
# Track frame offsets: 
#        150
#        15326
#        31734
#        50800
#        68160
#        82103
#        100687
#        120433
#        127965
#        151927
#        171522
#        174655
#
# Disc length: 2522 seconds
#
# Revision: 0
# Processed by: cddbd v1.5.2PL0 Copyright (c) Steve Scherf et al.
# Submitted via: ExactAudioCopy v1.3
#
DISCID=9209d80c
DTITLE=Josh Turner - I Serve A Savior
DYEAR=2018
DGENRE=Country
TTITLE0=I Saw The Light (feat Sonya Isaacs)
TTITLE1=I Pray My Way Out Of Trouble (feat Bobby Osborne)
TTITLE2=Great Is Thy Faithfulness
TTITLE3=Swing Low, Sweet Chariot
TTITLE4=Without Him
TTITLE5=I Serve A Saviour
TTITLE6=How Great Thou Art (feat Sonya Isaacs)
TTITLE7=The River (Of Happiness) (Live from Gaither Studios) (Feat the
TTITLE7=Turner Family)
TTITLE8=Amazing Grace
TTITLE9=Long Black Train (Live from Gaither Studios)
TTITLE10=Doxology
TTITLE11=Me and God (Live from Gaither Studios)
EXTD=
EXTT0=
EXTT1=
EXTT2=
EXTT3=
EXTT4=
EXTT5=
EXTT6=
EXTT7=
EXTT8=
EXTT9=
EXTT10=
EXTT11=
PLAYORDER=
